<svg width="22" height="22" viewBox="0 0 22 22" fill="none" xmlns="http://www.w3.org/2000/svg">
<circle opacity="0.3" cx="11.355" cy="10.7041" r="10.5" fill="white"/>
<path d="M13.883 9.64682C13.4826 10.1902 13.0822 10.4762 12.7962 10.6764C12.453 10.9052 12.31 11.0196 12.2814 11.5631C12.2242 11.8205 12.024 11.9921 11.7952 11.9921H11.0516C10.7656 11.9921 10.5654 11.7633 10.594 11.4773C10.7084 10.1902 11.1946 9.73262 11.8238 9.30361C12.0812 9.13201 12.31 8.96041 12.5388 8.6458C12.7676 8.33119 12.7962 7.87359 12.6246 7.50178C12.4816 7.24437 12.1384 6.81536 11.3376 6.81536C10.2794 6.81536 9.93615 7.50178 9.85035 8.01659C9.82175 8.24539 9.62154 8.417 9.39274 8.417H8.59192C8.30592 8.417 8.07711 8.15959 8.13431 7.87359C8.33452 6.47216 9.33554 5.12793 11.309 5.12793C12.5388 5.12793 13.597 5.72854 14.1118 6.72956C14.5694 7.70198 14.4836 8.8174 13.883 9.64682Z" fill="white"/>
<path d="M11.3719 15.0967C11.9186 15.0967 12.3559 14.6593 12.3559 14.1127C12.3559 13.566 11.8967 13.1068 11.3719 13.1287H11.1095C10.5628 13.1287 10.1255 13.566 10.1255 14.1127C10.1255 14.6593 10.5628 15.0967 11.1095 15.0967H11.3719Z" fill="white"/>
</svg>
